HIERARCHY
ROOT Hips
{
     OFFSET 1.88212 96.90440 -13.34250
     CHANNELS 6 Xposition Yposition Zposition Zrotation Xrotation Yrotation
     JOINT Spine
     {
          OFFSET 0.00000 11.89050 0.00000
          CHANNELS 3 Zrotation Xrotation Yrotation
          JOINT Spine1
          {
               OFFSET -0.00000 25.65740 0.12766
               CHANNELS 3 Zrotation Xrotation Yrotation
               JOINT HEad
               {
                    OFFSET 0.00000 8.73416 0.01134
                    CHANNELS 3 Zrotation Xrotation Yrotation
                    End Site
                    {
                         OFFSET -0.29000 12.77420 2.51395
                    }
               }
               JOINT LeftShoulder1
               {
                    OFFSET 8.99000 -0.36225 -0.22000
                    CHANNELS 3 Zrotation Xrotation Yrotation
                    JOINT LeftArm
                    {
                         OFFSET 10.28270 -0.00338 0.32212
                         CHANNELS 3 Zrotation Xrotation Yrotation
                         JOINT LeftForeArm
                         {
                              OFFSET 32.76690 0.09914 -1.42434
                              CHANNELS 3 Zrotation Xrotation Yrotation
                              JOINT LeftHand
                              {
                                   OFFSET 27.56430 0.08536 1.02216
                                   CHANNELS 3 Zrotation Xrotation Yrotation
                                   End Site
                                   {
                                        OFFSET 16.74430 -0.60000 1.50291
                                   }
                              }
                         }
                    }
               }
               JOINT RightShoulder
               {
                    OFFSET -8.99000 -0.36225 -0.22000
                    CHANNELS 3 Zrotation Xrotation Yrotation
                    JOINT RightArm
                    {
                         OFFSET -10.28270 -0.00338 0.32212
                         CHANNELS 3 Zrotation Xrotation Yrotation
                         JOINT RightForeArm
                         {
                              OFFSET -32.89710 0.09914 -1.42434
                              CHANNELS 3 Zrotation Xrotation Yrotation
                              JOINT RightHand
                              {
                                   OFFSET -27.49210 0.08536 1.02216
                                   CHANNELS 3 Zrotation Xrotation Yrotation
                                   End Site
                                   {
                                        OFFSET -16.63120 -0.60000 1.50291
                                   }
                              }
                         }
                    }
               }
          }
     }
     JOINT LeftUpLeg
     {
          OFFSET 8.94580 -8.66707 0.10165
          CHANNELS 3 Zrotation Xrotation Yrotation
          JOINT LeftLeg
          {
               OFFSET 0.00000 -44.42270 1.37270
               CHANNELS 3 Zrotation Xrotation Yrotation
               JOINT LeftFoot
               {
                    OFFSET -0.25355 -42.09240 -1.46059
                    CHANNELS 3 Zrotation Xrotation Yrotation
                    JOINT LeftToes
                    {
                         OFFSET -0.04000 -4.41509 8.49910
                         CHANNELS 3 Zrotation Xrotation Yrotation
                         End Site
                         {
                              OFFSET 0.08000 -0.04745 9.77979
                         }
                    }
               }
          }
     }
     JOINT RightUpLeg
     {
          OFFSET -8.94580 -8.66707 0.10165
          CHANNELS 3 Zrotation Xrotation Yrotation
          JOINT RightLeg
          {
               OFFSET 0.00000 -44.42270 1.37270
               CHANNELS 3 Zrotation Xrotation Yrotation
               JOINT RightFoot
               {
                    OFFSET 0.25355 -42.09240 -1.46059
                    CHANNELS 3 Zrotation Xrotation Yrotation
                    JOINT RightToes
                    {
                         OFFSET 0.04000 -4.41509 8.49910
                         CHANNELS 3 Zrotation Xrotation Yrotation
                         End Site
                         {
                              OFFSET -0.08000 -0.13745 9.77979
                         }
                    }
               }
          }
     }
}
MOTION
Frames: 20
Frame Time: 0.01667
-418.00891 86.98472 -148.65887 8.77616 -10.54504 54.92773 5.73093 19.13955 -9.05787 -0.02670 0.02375 -0.01530 -9.12454 -1.47951 20.26592 -13.55506 14.60567 6.27586 -131.83807 -57.68223 -110.03492 -9.31120 61.66049 -100.35493 22.61079 -3.79540 -8.68061 12.32375 16.02781 -0.79807 81.05807 3.79124 75.05990 4.51395 30.41879 106.30216 18.75784 6.79623 2.94424 26.37833 -4.17866 -13.24263 -30.07578 -3.96147 70.63740 42.37902 0.01033 -0.00880 -27.56446 -16.25422 -61.06308 -19.47046 5.12066 -1.72347 32.00373 26.83160 -18.59683 -30.00015 -0.00750 0.00158 8.27529 -49.46441 23.21141 
-417.57391 87.10653 -148.82373 8.61925 -10.48192 54.65718 6.18180 19.41550 -6.31627 -0.07759 0.10510 0.02134 -8.15117 -2.10587 17.40563 -12.91107 14.35706 3.44184 -129.20549 -57.49480 -107.70453 -10.40960 60.65749 -98.65662 21.77632 -1.05069 -9.50370 12.47366 14.76671 -2.91192 81.10253 3.43346 74.45499 4.78055 30.52694 106.49714 18.54542 7.15438 3.16385 26.94289 -2.98878 -14.34553 -30.81166 -6.92796 70.08874 43.78338 0.00945 -0.00660 -27.65830 -16.26317 -60.16086 -19.12868 4.05207 -1.74773 31.63300 27.95266 -19.01565 -30.00035 -0.00799 0.00153 8.20133 -50.35431 22.66091 
-417.21588 87.14102 -148.99196 8.56346 -10.36872 54.55774 6.30730 19.78261 -3.94855 -0.01901 0.01160 -0.01891 -7.19200 -2.52573 14.85892 -12.57117 14.13169 1.43034 -118.78132 -55.30887 -100.34684 -10.07439 55.77676 -95.91915 22.21740 -1.55834 -9.54657 12.61152 13.74400 -4.66347 81.18229 2.91482 73.82110 5.16620 30.72638 106.85094 18.56770 7.84159 3.46351 27.36736 -2.08925 -15.37127 -31.53737 -9.33209 69.53600 45.08539 0.00815 -0.00524 -27.78515 -16.22095 -59.34662 -18.89318 3.08668 -1.71763 31.38682 28.96462 -19.63724 -30.00073 -0.00830 0.00156 8.09751 -51.21750 22.09126 
-416.92923 87.10284 -149.15833 8.60518 -10.21810 54.61324 6.15585 20.19942 -1.94275 -0.01223 0.00629 -0.02098 -6.11331 -2.95801 12.48343 -12.04664 13.74237 -0.30799 -111.76371 -53.41584 -95.32943 -10.04076 52.10787 -94.26349 21.63536 0.51026 -10.02203 12.91170 12.69324 -6.12310 81.25745 2.26871 73.19124 5.63652 30.96297 107.29586 18.44358 8.18190 3.54254 27.66504 -1.46385 -16.30783 -32.23513 -11.22019 69.02032 46.30696 0.00656 -0.00421 -27.97246 -16.17459 -58.64207 -18.75522 2.22052 -1.63006 31.27764 29.87933 -20.45494 -30.00129 -0.00855 0.00157 7.95487 -52.06886 21.52090 
-416.70215 87.00916 -149.31496 8.73129 -10.03828 54.80687 5.77570 20.63929 -0.28016 -0.01012 0.00516 -0.02034 -4.97989 -3.31780 10.33030 -11.39977 13.27967 -1.80060 -106.86833 -51.83759 -91.74870 -10.22684 49.21967 -93.15599 21.74508 0.59692 -9.98220 13.31088 11.71203 -7.28226 81.31679 1.52635 72.58003 6.14614 31.21068 107.79424 18.45554 8.68183 3.66717 27.84900 -1.09063 -17.14288 -32.89410 -12.63081 68.57258 47.45593 0.00481 -0.00319 -28.23046 -16.18068 -58.06915 -18.70501 1.44490 -1.48487 31.31180 30.71061 -21.45973 -30.00210 -0.00882 0.00149 7.75492 -52.93092 20.95769 
-416.52145 86.87860 -149.45357 8.92347 -9.83377 55.12161 5.21315 21.08028 1.06087 -0.00849 0.00440 -0.01940 -3.81684 -3.60142 8.40510 -10.69636 12.77072 -3.04784 -103.30125 -50.45697 -89.08772 -10.49566 46.87686 -92.34732 21.20105 2.08840 -10.21490 13.78256 10.81526 -8.15291 81.36747 0.72245 71.99609 6.65771 31.45306 108.31515 18.37179 8.94474 3.66113 27.93063 -0.94168 -17.86432 -33.51084 -13.59678 68.20959 48.53196 0.00310 -0.00203 -28.56762 -16.27754 -57.64874 -18.73052 0.75075 -1.28415 31.48542 31.46930 -22.63852 -30.00311 -0.00914 0.00132 7.48872 -53.81964 20.41592 
-416.37579 86.74130 -149.54402 9.16619 -9.61256 55.53186 4.50574 21.51233 2.11518 -0.00706 0.00388 -0.01833 -2.64430 -3.81079 6.70831 -9.97491 12.24233 -4.05025 -100.60224 -49.18937 -87.06356 -10.78077 44.89570 -91.68888 21.09053 2.37660 -10.16674 14.30731 10.01342 -8.75765 81.41946 -0.10030 71.44191 7.13687 31.68508 108.84223 18.37868 9.26421 3.68413 27.76089 -1.14667 -18.46235 -32.97707 -12.71639 68.66483 47.92588 -0.00087 -0.00434 -29.05490 -16.20626 -57.90792 -18.79512 0.14632 -1.02037 31.77271 32.15120 -23.97227 -30.00428 -0.00953 0.00105 7.15904 -54.74489 19.92399 
-416.25754 86.61965 -149.57426 9.44511 -9.37979 56.01875 3.68504 21.92922 2.91358 -0.00575 0.00362 -0.01714 -1.48111 -3.94894 5.23686 -9.25733 11.71585 -4.81962 -98.49565 -47.98975 -85.49647 -11.03188 43.18727 -91.13017 20.59983 3.43960 -10.28960 14.87342 9.30999 -9.12687 81.47226 -0.89472 70.91860 7.55790 31.89448 109.36025 18.34599 9.43306 3.63169 27.40419 -1.61481 -18.92954 -32.90137 -12.04167 69.05816 48.03011 -0.00297 0.00088 -29.52238 -16.44332 -58.14831 -18.86443 -0.36191 -0.69342 32.14111 32.74507 -25.43713 -30.00543 -0.00998 0.00074 6.79352 -55.69829 19.51667 
-416.15976 86.51913 -149.55995 9.74668 -9.13513 56.57000 2.77902 22.32580 3.48079 -0.00451 0.00353 -0.01584 -0.34606 -4.01929 3.98394 -8.55050 11.20224 -5.37379 -96.81856 -46.85353 -84.26706 -11.23853 41.68932 -90.64541 20.40974 3.78386 -10.25996 15.47747 8.69846 -9.29630 81.50919 -1.61492 70.42531 7.89953 32.06496 109.86179 18.39163 9.63984 3.59652 26.95809 -2.23447 -19.26657 -33.07030 -11.30276 69.39174 48.41063 -0.00237 0.00199 -30.02124 -16.88761 -58.37539 -18.92950 -0.78227 -0.31215 32.56047 33.24149 -26.99891 -30.00635 -0.01043 0.00054 6.44101 -56.64306 19.21174 
-416.07422 86.43375 -149.52591 10.05890 -8.87640 57.17336 1.81479 22.69937 3.84048 -0.00321 0.00351 -0.01444 0.74135 -4.02526 2.93944 -7.85738 10.70557 -5.73775 -95.47976 -45.79107 -83.29011 -11.39574 40.39357 -90.23195 20.02133 4.54994 -10.33560 16.11308 8.16749 -9.29840 81.51133 -2.23087 69.96483 8.15312 32.17963 110.33491 18.42122 9.77055 3.51328 26.49338 -2.93058 -19.47837 -33.38438 -10.40714 69.65685 48.87377 -0.00175 0.00277 -30.58916 -17.47020 -58.61126 -19.00087 -1.13172 0.11307 33.00674 33.63751 -28.61327 -30.00683 -0.01082 0.00051 6.14422 -57.52744 18.99641 
-415.99194 86.35560 -149.48868 10.37155 -8.60344 57.81335 0.81929 23.04984 4.01807 -0.00199 0.00359 -0.01302 1.76276 -3.97023 2.09113 -7.17841 10.22805 -5.94093 -94.42605 -44.82426 -82.50670 -11.51747 39.29111 -89.87811 19.85195 4.86872 -10.33018 16.76198 7.70795 -9.16296 81.47371 -2.73148 69.54543 8.32372 32.23384 110.76425 18.48344 9.92819 3.43956 26.04899 -3.66231 -19.57221 -33.79764 -9.35012 69.85328 49.35978 -0.00141 0.00331 -31.24195 -18.15251 -58.86887 -19.09097 -1.42542 0.57530 33.46520 33.93702 -30.23576 -30.00689 -0.01114 0.00059 5.91654 -58.31103 18.83435 
-415.90549 86.28114 -149.45284 10.67593 -8.31949 58.47184 -0.18110 23.37831 4.04059 -0.00082 0.00376 -0.01163 2.70178 -3.85739 1.42561 -6.51304 9.77178 -6.01339 -93.61572 -43.96499 -81.86926 -11.61384 38.37673 -89.57360 19.57969 5.40232 -10.39987 17.40442 7.31297 -8.91624 81.39935 -3.12266 69.17740 8.42684 32.23323 111.13100 18.49856 10.04331 3.34702 25.64104 -4.40778 -19.55723 -34.27816 -8.15532 69.99100 49.86047 -0.00123 0.00367 -31.98819 -18.90339 -59.16516 -19.20235 -1.67227 1.07147 33.92997 34.14666 -31.83153 -30.00669 -0.01135 0.00067 5.74094 -58.98057 18.68284 
-415.80817 86.21011 -149.41322 10.96443 -8.03094 59.13002 -1.16226 23.68562 3.93528 0.00025 0.00398 -0.01034 3.54547 -3.69001 0.92890 -5.86278 9.34006 -5.98183 -93.00117 -43.21684 -81.33948 -11.69540 37.62115 -89.30476 19.44569 5.65939 -10.43409 18.02566 6.97708 -8.58582 81.29320 -3.41543 68.86870 8.47939 32.19085 111.42160 18.49300 10.17531 3.27867 25.27227 -5.15317 -19.44422 -34.79608 -6.85096 70.08385 50.38250 -0.00114 0.00396 -32.83459 -19.68647 -59.50116 -19.32674 -1.87642 1.60030 34.39966 34.27405 -33.37862 -30.00644 -0.01147 0.00065 5.58660 -59.55029 18.50835 
-415.69501 86.14351 -149.36177 11.23099 -7.74613 59.77029 -2.10328 23.97190 3.72785 0.00119 0.00420 -0.00919 4.28434 -3.47135 0.58697 -5.23117 8.93701 -5.86960 -92.53383 -42.57526 -80.88662 -11.76323 36.99450 -89.06660 19.23885 6.03571 -10.52045 18.61614 6.69544 -8.19959 81.16052 -3.62000 68.62328 8.49586 32.11817 111.63103 18.42349 10.28850 3.22580 24.93909 -5.88722 -19.24646 -35.32434 -5.46457 70.14294 50.93559 -0.00104 0.00424 -33.78353 -20.46392 -59.85666 -19.45054 -2.03992 2.16009 34.87318 34.32721 -34.86580 -30.00627 -0.01146 0.00049 5.43126 -60.04976 18.29932 
-415.56177 86.08149 -149.29344 11.47153 -7.47424 60.37760 -2.98626 24.23695 3.44088 0.00202 0.00440 -0.00823 4.91180 -3.20456 0.38630 -4.61856 8.56684 -5.69659 -92.17980 -42.03972 -80.49284 -11.82138 36.46874 -88.85721 19.10106 6.25210 -10.58520 19.16561 6.46451 -7.78329 81.01229 -3.74333 68.44096 8.48488 32.02306 111.76587 18.32191 10.41946 3.21420 24.63670 -6.59932 -18.98125 -35.84189 -4.02336 70.17519 51.52915 -0.00090 0.00452 -34.82785 -21.20753 -60.19383 -19.56097 -2.16450 2.74755 35.34843 34.31416 -36.28835 -30.00617 -0.01135 0.00022 5.27820 -60.50792 18.07402 
-415.40491 86.02324 -149.20737 11.68404 -7.22428 60.93952 -3.79607 24.48060 3.09321 0.00274 0.00455 -0.00747 5.42368 -2.89312 0.31437 -4.02476 8.23327 -5.48066 -91.92464 -41.61731 -80.15182 -11.87872 36.03689 -88.67703 18.90698 6.53171 -10.67029 19.65899 6.28133 -7.35984 80.86807 -3.78779 68.31922 8.45177 31.90921 111.83752 18.18452 10.54226 3.23170 24.36215 -7.27949 -18.66987 -36.33506 -2.55388 70.18744 52.17063 -0.00069 0.00476 -35.95118 -21.90412 -60.47334 -19.64954 -2.25222 3.35834 35.82261 34.24252 -37.64361 -30.00608 -0.01122 -0.00011 5.14927 -60.94477 17.86860 
-415.22165 85.96787 -149.10539 11.86816 -7.00405 61.44559 -4.52127 24.70228 2.70097 0.00333 0.00466 -0.00688 5.81859 -2.54159 0.35990 -3.45350 7.93634 -5.23593 -91.76105 -41.32187 -79.86052 -11.95504 35.70336 -88.52114 18.75842 6.70087 -10.73008 20.08532 6.13938 -6.94945 80.74400 -3.75186 68.25111 8.40134 31.77894 111.85720 18.05239 10.66748 3.28532 24.11540 -7.91944 -18.33543 -36.79716 -1.07974 70.19153 52.86390 -0.00042 0.00495 -37.13110 -22.54191 -60.66466 -19.71227 -2.30576 3.98853 36.29155 34.11954 -38.92862 -30.00598 -0.01110 -0.00043 5.05654 -61.37351 17.70888 
-415.00922 85.91548 -148.99170 12.02520 -6.81865 61.88672 -5.15627 24.90031 2.27888 0.00373 0.00468 -0.00641 6.09814 -2.15548 0.51262 -2.91583 7.67078 -4.97322 -91.67197 -41.16431 -79.60867 -12.07396 35.47684 -88.37875 18.59451 6.87879 -10.79978 20.44686 6.02689 -6.56690 80.64017 -3.63663 68.22378 8.34185 31.63428 111.83186 17.93559 10.77342 3.36117 23.91722 -8.52086 -17.99703 -37.18135 0.38717 70.20271 53.56289 0.00002 0.00405 -38.33062 -23.02799 -60.76132 -19.75023 -2.32801 4.63560 36.74849 33.95303 -40.13934 -30.00598 -0.01100 -0.00074 4.99093 -61.80378 17.59805 
-414.76697 85.86712 -148.86971 12.15698 -6.67020 62.25585 -5.70161 25.07166 1.83973 0.00389 0.00470 -0.00606 6.26728 -1.74105 0.76317 -2.42900 7.43105 -4.70436 -91.62288 -41.14917 -79.37937 -12.25625 35.35156 -88.23347 18.48388 6.96137 -10.86973 20.74987 5.93296 -6.22109 80.54955 -3.44767 68.22401 8.28379 31.47813 111.76573 17.85574 10.86908 3.45913 23.76879 -9.08595 -17.67461 -37.54221 1.83204 70.24658 54.27494 0.00013 0.00394 -39.51051 -23.34782 -60.73458 -19.76539 -2.32301 5.29734 37.18392 33.75208 -41.27395 -30.00616 -0.01088 -0.00104 4.92950 -62.24355 17.52354 
-414.49686 85.82433 -148.74048 12.26497 -6.55795 62.54856 -6.16327 25.21309 1.39374 0.00384 0.00466 -0.00579 6.33335 -1.30523 1.10250 -2.00536 7.21747 -4.44045 -91.57493 -41.26826 -79.15990 -12.51442 35.30352 -88.06786 18.38107 7.02745 -10.97049 20.99515 5.85466 -5.91296 80.46844 -3.19850 68.24273 8.23422 31.31416 111.66626 17.81108 10.95335 3.56090 23.66585 -9.62095 -17.38343 -37.90818 3.25236 70.35371 54.99754 0.00034 0.00393 -40.64089 -23.47508 -60.56571 -19.75795 -2.29623 5.97058 37.58779 33.52643 -42.33577 -30.00661 -0.01070 -0.00131 4.84443 -62.69975 17.46445 
